<?xml version="1.0" encoding="UTF-8" standalone="no"?>
<!-- Created with Inkscape (http://www.inkscape.org/) -->

<svg
   version="1.1"
   id="svg1"
   width="1365.3333"
   height="1365.3333"
   viewBox="0 0 1365.3333 1365.3333"
   sodipodi:docname="driver.svg"
   inkscape:version="1.4 (e7c3feb1, 2024-10-09)"
   xmlns:inkscape="http://www.inkscape.org/namespaces/inkscape"
   xmlns:sodipodi="http://sodipodi.sourceforge.net/DTD/sodipodi-0.dtd"
   xmlns="http://www.w3.org/2000/svg"
   xmlns:svg="http://www.w3.org/2000/svg">
  <defs
     id="defs1" />
  <sodipodi:namedview
     id="namedview1"
     pagecolor="#ffffff"
     bordercolor="#000000"
     borderopacity="0.24705882"
     inkscape:showpageshadow="2"
     inkscape:pageopacity="0.0"
     inkscape:pagecheckerboard="false"
     inkscape:deskcolor="#d1d1d1"
     inkscape:zoom="0.5905519"
     inkscape:cx="634.99923"
     inkscape:cy="684.10583"
     inkscape:window-width="2240"
     inkscape:window-height="1137"
     inkscape:window-x="0"
     inkscape:window-y="25"
     inkscape:window-maximized="1"
     inkscape:current-layer="g1" />
  <g
     inkscape:groupmode="layer"
     inkscape:label="Image"
     id="g1">
    <path
       style="fill:#000000;fill-opacity:1"
       d="m 611.27178,989.69487 c -4.71814,-1.074 -12.40296,-3.918 -17.07737,-6.3199 -4.67441,-2.4019 -58.51613,-40.2171 -119.64827,-84.0337 -61.13214,-43.8167 -112.34319,-79.6667 -113.80233,-79.6667 -2.47,0 -44.96664,7.061 -80.22692,13.3301 -24.93573,4.4334 -278.366894,48.0033 -279.2188141,48.0033 -0.42964,0 -0.78116,-84.6 -0.78116,-187.99999 0,-136.97446 0.40208,-187.99998 1.4814401,-187.99998 1.476,0 257.314204,-44.12182 337.185204,-58.15091 45.71015,-8.02885 45.75972,-8.0453 60.66666,-20.13607 31.50955,-25.55686 72.86655,-57.36794 81.01285,-62.31368 12.28903,-7.46085 27.09164,-13.40924 44.25177,-17.78248 11.58643,-2.95279 16.38246,-3.42913 35.40205,-3.51617 16.56409,-0.0758 24.78032,0.49852 33.25245,2.32439 12.17915,2.62478 37.41421,11.46784 37.41421,13.11097 0,0.55603 -25.06803,35.98788 -55.70674,78.73745 -66.73833,93.11864 -63.12064,87.89902 -68.78738,99.24679 -30.16649,60.40903 -2.27234,135.59816 60.29301,162.52076 40.22879,17.31092 87.25114,10.98027 121.68419,-16.38242 13.47564,-10.7086 16.50346,-14.4192 48.51691,-59.45763 15.4,-21.66564 28.45562,-39.42408 29.01249,-39.46321 1.9343,-0.1359 164.12771,116.63769 171.86693,123.73819 13.78681,12.64898 23.84454,30.83875 28.40926,51.37909 1.60539,7.224 0.85506,30.6811 -1.24148,38.8115 -1.1346,4.4 -4.74072,13.4 -8.01361,20 -9.71879,19.5987 -24.20643,33.6898 -43.8618,42.6614 -14.3072,6.5304 -22.0744,8.0243 -40.83846,7.8544 -14.19961,-0.1286 -18.07029,-0.6503 -26.1491,-3.5246 l -9.48244,-3.3736 -0.71922,13.5245 c -1.18995,22.3764 -9.12714,39.6515 -25.20623,54.861 -26.092,24.6808 -65.0509,28.7791 -95.95319,10.0937 l -8.3547,-5.0517 -5.93392,12.1441 c -13.12831,26.8679 -37.51959,42.8248 -67.53452,44.1813 -8.94322,0.4042 -16.15786,-0.04 -21.91177,-1.3502 z m 381.99697,-128.3536 c 1.31556,-2.0167 4.97285,-7.2206 8.12725,-11.5643 7.7101,-10.6169 15.5475,-26.8575 19.9959,-41.4357 3.4132,-11.186 3.6616,-13.628 3.6616,-36 0,-22.35014 -0.2511,-24.82486 -3.6525,-35.99996 -7.8862,-25.90872 -23.45322,-50.12124 -41.97389,-65.28489 -4.90064,-4.01236 -57.51024,-42.09082 -116.91024,-84.61881 -100.89512,-72.23681 -108.14137,-77.1736 -110.14902,-75.04328 -1.18197,1.25418 -19.70598,26.88033 -41.16447,56.94699 -48.66684,68.18978 -48.0044,67.32795 -56.93276,74.06893 -10.50195,7.92905 -21.42909,11.91826 -35.20912,12.85393 -20.22685,1.3734 -36.95345,-4.79627 -51.39657,-18.95783 -20.12363,-19.73133 -25.73114,-49.88252 -13.92138,-74.85425 5.50438,-11.63899 120.04138,-170.9697 128.99172,-179.43845 13.24378,-12.53116 30.31671,-22.86329 46.59038,-28.19536 15.31664,-5.01851 37.18574,-6.68366 55.19122,-4.20237 11.31763,1.55966 30.40718,8.12269 40.01813,13.75833 7.48727,4.39036 155.75839,109.82117 169.63593,120.62263 l 4.98737,3.8819 32.3459,-5.49382 c 27.4715,-4.66592 317.2993,-54.63948 330.0125,-56.90241 l 4.3334,-0.77133 v 187.87967 187.87958 l -145.6667,24.9821 c -80.1167,13.7401 -156.7666,27.0683 -170.3332,29.6183 -25.7905,4.8477 -55.30117,9.9371 -57.61918,9.9371 -0.7448,0 -0.27782,-1.65 1.03773,-3.6667 z"
       id="path1" />
  </g>
</svg>
